<svg width="489" height="104" viewBox="0 0 489 104" fill="none" xmlns="http://www.w3.org/2000/svg">
<path d="M451.698 103.808C447.005 103.808 442.823 102.955 439.154 101.248C435.57 99.456 432.711 96.896 430.578 93.568C428.53 90.24 427.506 86.1867 427.506 81.408C427.506 75.8613 428.829 71.4667 431.474 68.224C434.119 64.9813 437.575 62.5493 441.842 60.928C446.194 59.3067 450.845 58.1973 455.794 57.6C460.829 57.0027 465.693 56.6613 470.386 56.576V72.192C461.938 72.0213 455.837 72.6613 452.082 74.112C448.413 75.4773 446.578 77.7387 446.578 80.896C446.578 83.2 447.431 84.8213 449.138 85.76C450.93 86.6987 452.978 87.168 455.282 87.168C457.501 87.168 459.762 86.8267 462.066 86.144C464.455 85.4613 466.418 84.1387 467.954 82.176C469.575 80.2133 470.386 77.312 470.386 73.472V64.512H488.69V101.76H470.386V94.848C468.423 97.5787 465.735 99.7547 462.322 101.376C458.994 102.997 455.453 103.808 451.698 103.808ZM425.074 56.576C425.074 51.712 426.354 47.104 428.914 42.752C431.474 38.4 435.186 34.8587 440.05 32.128C444.914 29.3973 450.802 28.032 457.714 28.032C467.101 28.032 474.397 30.592 479.602 35.712C484.807 40.7467 487.794 47.7013 488.562 56.576H470.386C470.13 53.0773 469.149 50.2187 467.442 48C465.735 45.7813 462.493 44.672 457.714 44.672C454.045 44.672 451.229 45.2693 449.266 46.464C447.303 47.5733 445.938 49.0667 445.17 50.944C444.487 52.736 444.146 54.6133 444.146 56.576H425.074Z" fill="black"/>
<path d="M379.357 30.08H397.661V101.76H379.357V30.08ZM397.661 66.688L395.741 53.504C395.741 51.2853 395.954 48.7253 396.381 45.824C396.808 42.9227 397.789 40.1493 399.325 37.504C400.946 34.7733 403.421 32.512 406.749 30.72C410.077 28.928 414.6 28.032 420.317 28.032V45.952C415.282 45.952 411.058 46.5067 407.645 47.616C404.317 48.7253 401.8 50.7733 400.093 53.76C398.472 56.6613 397.661 60.9707 397.661 66.688Z" fill="black"/>
<path d="M333.652 103.808C326.313 103.808 319.871 102.229 314.324 99.072C308.863 95.8293 304.596 91.3493 301.524 85.632C298.537 79.9147 297.044 73.3867 297.044 66.048C297.044 58.624 298.537 52.0533 301.524 46.336C304.596 40.6187 308.863 36.1387 314.324 32.896C319.871 29.6533 326.356 28.032 333.78 28.032C341.119 28.032 347.519 29.6533 352.98 32.896C358.441 36.1387 362.665 40.6187 365.652 46.336C368.724 52.0533 370.26 58.624 370.26 66.048C370.26 73.3867 368.724 79.9147 365.652 85.632C362.665 91.3493 358.441 95.8293 352.98 99.072C347.519 102.229 341.076 103.808 333.652 103.808ZM333.78 87.424C337.876 87.424 341.204 86.4853 343.764 84.608C346.409 82.6453 348.372 80.0427 349.652 76.8C350.932 73.5573 351.572 69.9733 351.572 66.048C351.572 62.0373 350.932 58.4107 349.652 55.168C348.372 51.84 346.409 49.2373 343.764 47.36C341.204 45.3973 337.876 44.416 333.78 44.416C329.599 44.416 326.185 45.3973 323.54 47.36C320.895 49.2373 318.932 51.84 317.652 55.168C316.372 58.4107 315.732 62.0373 315.732 66.048C315.732 69.9733 316.372 73.5573 317.652 76.8C318.932 80.0427 320.895 82.6453 323.54 84.608C326.185 86.4853 329.599 87.424 333.78 87.424Z" fill="black"/>
<path d="M269.108 30.08H287.412V101.76H269.108V30.08ZM263.988 4.48L283.572 0L288.052 19.584L268.468 24.064L263.988 4.48Z" fill="black"/>
<path d="M212.925 103.808C206.184 103.808 200.381 102.229 195.517 99.072C190.738 95.8293 187.069 91.3493 184.509 85.632C181.949 79.9147 180.669 73.3867 180.669 66.048C180.669 58.624 181.949 52.0533 184.509 46.336C187.069 40.6187 190.738 36.1387 195.517 32.896C200.381 29.6533 206.184 28.032 212.925 28.032C217.704 28.032 221.757 28.8853 225.085 30.592C228.498 32.2987 231.272 34.7733 233.405 38.016V93.952C231.357 97.024 228.669 99.456 225.341 101.248C222.098 102.955 217.96 103.808 212.925 103.808ZM216.125 87.424C220.05 87.424 223.293 86.4853 225.853 84.608C228.413 82.6453 230.29 80.0427 231.485 76.8C232.765 73.5573 233.405 69.9733 233.405 66.048C233.405 62.0373 232.765 58.4107 231.485 55.168C230.29 51.84 228.413 49.2373 225.853 47.36C223.293 45.3973 220.05 44.416 216.125 44.416C212.456 44.416 209.341 45.3973 206.781 47.36C204.306 49.2373 202.429 51.84 201.149 55.168C199.954 58.4107 199.357 62.0373 199.357 66.048C199.357 69.9733 199.954 73.5573 201.149 76.8C202.429 80.0427 204.306 82.6453 206.781 84.608C209.341 86.4853 212.456 87.424 216.125 87.424ZM233.405 101.76V5.75999H251.709V101.76H233.405Z" fill="black"/>
<path d="M123.747 72.064V57.216H161.251L155.363 60.672C155.79 58.1973 155.534 55.7227 154.595 53.248C153.742 50.688 152.206 48.5973 149.987 46.976C147.768 45.2693 144.782 44.416 141.027 44.416C136.163 44.416 131.982 46.0373 128.483 49.28C125.07 52.4373 123.491 57.216 123.747 63.616H104.419C104.846 55.8507 106.766 49.3653 110.179 44.16C113.592 38.8693 117.987 34.8587 123.363 32.128C128.739 29.3973 134.627 28.032 141.027 28.032C145.891 28.032 150.499 29.0133 154.851 30.976C159.203 32.9387 162.958 35.7973 166.115 39.552C169.272 43.3067 171.576 47.9147 173.027 53.376C174.478 58.8373 174.691 65.0667 173.667 72.064H123.747ZM141.027 103.808C134.371 103.808 128.44 102.485 123.235 99.84C118.115 97.1947 113.976 93.4827 110.819 88.704C107.662 83.9253 105.656 78.3787 104.803 72.064H123.747C124.43 76.5013 126.094 80.1707 128.739 83.072C131.47 85.9733 135.566 87.424 141.027 87.424C144.526 87.424 147.427 86.6133 149.731 84.992C152.035 83.3707 153.656 81.3653 154.595 78.976H173.923C172.899 83.9253 170.894 88.2773 167.907 92.032C164.92 95.7013 161.123 98.6027 156.515 100.736C151.992 102.784 146.83 103.808 141.027 103.808Z" fill="black"/>
<path d="M34.176 101.76L11.008 12.16H29.952L51.84 101.76H34.176ZM60.416 101.76H42.752L64.64 12.16H83.584L60.416 101.76ZM0 12.16H17.92V101.76H0V12.16ZM76.672 12.16H94.592V101.76H76.672V12.16Z" fill="black"/>
</svg>
